<?xml version="1.0" encoding="UTF-8" standalone="no"?>
<!-- Created with Inkscape (http://www.inkscape.org/) -->

<svg
   width="210mm"
   height="210mm"
   viewBox="0 0 210 210"
   version="1.1"
   id="svg142"
   inkscape:version="1.2.2 (b0a8486541, 2022-12-01)"
   sodipodi:docname="OriginalLogo.svg"
   xmlns:inkscape="http://www.inkscape.org/namespaces/inkscape"
   xmlns:sodipodi="http://sodipodi.sourceforge.net/DTD/sodipodi-0.dtd"
   xmlns="http://www.w3.org/2000/svg"
   xmlns:svg="http://www.w3.org/2000/svg">
  <sodipodi:namedview
     id="namedview144"
     pagecolor="#ffffff"
     bordercolor="#999999"
     borderopacity="1"
     inkscape:showpageshadow="0"
     inkscape:pageopacity="0"
     inkscape:pagecheckerboard="0"
     inkscape:deskcolor="#d1d1d1"
     inkscape:document-units="mm"
     showgrid="false"
     inkscape:zoom="0.73406285"
     inkscape:cx="293.57159"
     inkscape:cy="343.976"
     inkscape:window-width="1920"
     inkscape:window-height="1004"
     inkscape:window-x="0"
     inkscape:window-y="0"
     inkscape:window-maximized="1"
     inkscape:current-layer="layer1" />
  <defs
     id="defs139" />
  <g
     inkscape:label="Layer 1"
     inkscape:groupmode="layer"
     id="layer1">
    <path
       id="path3214"
       style="fill:#efb810;fill-opacity:1;stroke-width:0.285031"
       d="m 107.48225,39.130957 c -0.0835,0.620555 -0.22335,1.240983 -0.42736,1.853634 l -1.91048,5.736601 c 5.26751,3.214443 9.83664,7.297411 13.59297,11.977052 12.33121,-2.217201 25.09576,4.18872 30.87563,16.56849 l 4.08864,8.757598 c 5.86356,12.55903 15.05359,23.017908 26.39736,30.191948 l -56.28804,28.93054 c 0.80623,4.59856 2.12963,9.13807 3.96668,13.5294 l 0.0129,0.0305 70.25411,-36.10839 c 2.29903,-1.18163 3.74956,-3.65024 3.73311,-6.34018 -0.0164,-2.68997 -1.50365,-5.14462 -3.8344,-6.28747 l -6.00015,-2.96313 C 180.5256,99.334482 171.2538,89.762882 165.69627,77.859344 l -4.08864,-8.75761 C 152.32874,49.227504 130.77245,39.890356 111.24739,46.186857 l -2.19159,-4.693253 c -0.41675,-0.892611 -0.95208,-1.682259 -1.57355,-2.362647 z m 60.49398,107.324703 -15.99334,8.22017 -15.99282,8.22017 c 2.08101,4.45728 5.75031,7.87032 10.21798,9.47539 4.46769,1.60507 9.3613,1.26825 13.60951,-0.91519 4.24819,-2.18345 7.50119,-6.03375 9.03097,-10.72131 1.52978,-4.68756 1.20872,-9.82195 -0.8723,-14.27923 z m -79.108351,16.60932 -0.22789,1.08417 c -0.56802,2.63274 0.36874,5.37019 2.384351,7.03265 2.0156,1.66245 4.76361,1.97279 7.06262,0.79116 l 6.27817,-3.22667 z" />
    <path
       d="m 97.60617,32.266616 c -4.68085,-1.652318 -9.786131,0.826867 -11.424411,5.547826 l -1.77712,5.121042 c -20.67507,-2.867174 -41.19934,9.228669 -48.36334,29.87287 l -1.7401,5.01434 C 29.950969,90.358592 21.173759,100.85273 9.6647293,107.32871 l -2.7252,1.52299 c -3.09147,1.72303 -4.86991,5.13706 -4.58562,8.68045 0.28431,3.54338 2.64061,6.59067 5.97274,7.76688 L 109.87728,161.14592 c 3.33215,1.17622 7.03185,0.26669 9.47144,-2.31517 2.43959,-2.58188 3.13376,-6.37865 1.78239,-9.66997 l -1.18874,-2.90458 c -4.99295,-12.30113 -5.37514,-25.99857 -1.01564,-38.56111 l 1.74009,-5.01434 c 7.16402,-20.644186 -1.40174,-43.008676 -19.33708,-53.770787 l 1.77711,-5.121041 c 1.63828,-4.72096 -0.81984,-9.86999 -5.50068,-11.522306 z M 63.927029,168.0688 c 4.28416,-2.08044 7.56471,-5.80253 9.1382,-10.33679 l -16.92511,-5.97448 -16.92512,-5.97449 c -1.57348,4.53427 -1.31033,9.50726 0.75243,13.82814 2.06276,4.32086 5.75323,7.62951 10.24897,9.21649 4.49572,1.58696 9.42648,1.32156 13.71063,-0.75887 z"
       id="path156"
       style="fill:#efb810;fill-opacity:1;stroke-width:0.281382" />
  </g>
</svg>
